<?xml version="1.0" encoding="UTF-8" standalone="no"?>
<!-- Created with Inkscape (http://www.inkscape.org/) -->

<svg
   width="210mm"
   height="297mm"
   viewBox="0 0 210 297"
   version="1.1"
   id="svg1"
   inkscape:version="1.3 (0e150ed6c4, 2023-07-21)"
   sodipodi:docname="guy.svg"
   xmlns:inkscape="http://www.inkscape.org/namespaces/inkscape"
   xmlns:sodipodi="http://sodipodi.sourceforge.net/DTD/sodipodi-0.dtd"
   xmlns="http://www.w3.org/2000/svg"
   xmlns:svg="http://www.w3.org/2000/svg">
  <sodipodi:namedview
     id="namedview1"
     pagecolor="#ffffff"
     bordercolor="#000000"
     borderopacity="0.25"
     inkscape:showpageshadow="2"
     inkscape:pageopacity="0.0"
     inkscape:pagecheckerboard="0"
     inkscape:deskcolor="#d1d1d1"
     inkscape:document-units="mm"
     inkscape:zoom="0.51465132"
     inkscape:cx="720.87641"
     inkscape:cy="805.39966"
     inkscape:window-width="1920"
     inkscape:window-height="1052"
     inkscape:window-x="-8"
     inkscape:window-y="-8"
     inkscape:window-maximized="1"
     inkscape:current-layer="layer1" />
  <defs
     id="defs1">
    <marker
       style="overflow:visible"
       id="Dot"
       refX="0"
       refY="0"
       orient="auto"
       inkscape:stockid="Dot"
       markerWidth="2"
       markerHeight="2"
       viewBox="0 0 1 1"
       inkscape:isstock="true"
       inkscape:collect="always"
       preserveAspectRatio="xMidYMid"
       markerUnits="userSpaceOnUse">
      <path
         transform="scale(0.5)"
         style="fill:context-stroke;fill-rule:evenodd;stroke:none"
         d="M 5,0 C 5,2.76 2.76,5 0,5 -2.76,5 -5,2.76 -5,0 c 0,-2.76 2.3,-5 5,-5 2.76,0 5,2.24 5,5 z"
         sodipodi:nodetypes="sssss"
         id="path17" />
    </marker>
    <marker
       style="overflow:visible"
       id="Dot-2"
       refX="0"
       refY="0"
       orient="auto"
       inkscape:stockid="Dot"
       markerWidth="2"
       markerHeight="2"
       viewBox="0 0 1 1"
       inkscape:isstock="true"
       inkscape:collect="always"
       preserveAspectRatio="xMidYMid"
       markerUnits="userSpaceOnUse">
      <path
         transform="scale(0.5)"
         style="fill:context-stroke;fill-rule:evenodd;stroke:none"
         d="M 5,0 C 5,2.76 2.76,5 0,5 -2.76,5 -5,2.76 -5,0 c 0,-2.76 2.3,-5 5,-5 2.76,0 5,2.24 5,5 z"
         sodipodi:nodetypes="sssss"
         id="path17-2" />
    </marker>
    <marker
       style="overflow:visible"
       id="Dot-2-6"
       refX="0"
       refY="0"
       orient="auto"
       inkscape:stockid="Dot"
       markerWidth="2"
       markerHeight="2"
       viewBox="0 0 1 1"
       inkscape:isstock="true"
       inkscape:collect="always"
       preserveAspectRatio="xMidYMid"
       markerUnits="userSpaceOnUse">
      <path
         transform="scale(0.5)"
         style="fill:context-stroke;fill-rule:evenodd;stroke:none"
         d="M 5,0 C 5,2.76 2.76,5 0,5 -2.76,5 -5,2.76 -5,0 c 0,-2.76 2.3,-5 5,-5 2.76,0 5,2.24 5,5 z"
         sodipodi:nodetypes="sssss"
         id="path17-2-1" />
    </marker>
    <marker
       style="overflow:visible"
       id="Dot-2-6-4"
       refX="0"
       refY="0"
       orient="auto"
       inkscape:stockid="Dot"
       markerWidth="2"
       markerHeight="2"
       viewBox="0 0 1 1"
       inkscape:isstock="true"
       inkscape:collect="always"
       preserveAspectRatio="xMidYMid"
       markerUnits="userSpaceOnUse">
      <path
         transform="scale(0.5)"
         style="fill:context-stroke;fill-rule:evenodd;stroke:none"
         d="M 5,0 C 5,2.76 2.76,5 0,5 -2.76,5 -5,2.76 -5,0 c 0,-2.76 2.3,-5 5,-5 2.76,0 5,2.24 5,5 z"
         sodipodi:nodetypes="sssss"
         id="path17-2-1-8" />
    </marker>
    <marker
       style="overflow:visible"
       id="Dot-2-6-4-1"
       refX="0"
       refY="0"
       orient="auto"
       inkscape:stockid="Dot"
       markerWidth="2"
       markerHeight="2"
       viewBox="0 0 1 1"
       inkscape:isstock="true"
       inkscape:collect="always"
       preserveAspectRatio="xMidYMid"
       markerUnits="userSpaceOnUse">
      <path
         transform="scale(0.5)"
         style="fill:context-stroke;fill-rule:evenodd;stroke:none"
         d="M 5,0 C 5,2.76 2.76,5 0,5 -2.76,5 -5,2.76 -5,0 c 0,-2.76 2.3,-5 5,-5 2.76,0 5,2.24 5,5 z"
         sodipodi:nodetypes="sssss"
         id="path17-2-1-8-9" />
    </marker>
  </defs>
  <g
     inkscape:label="Layer 1"
     inkscape:groupmode="layer"
     id="layer1">
    <ellipse
       style="fill:#000000;stroke-width:1.301"
       id="path1"
       cx="65.676544"
       cy="152.5598"
       rx="16.836845"
       ry="17.093895" />
    <path
       style="fill:none;stroke:#000000;stroke-width:10;stroke-dasharray:none;stroke-opacity:1;marker-start:url(#Dot);marker-end:url(#Dot)"
       d="m 64.776867,151.40307 c 7.711532,34.44484 -1.799357,53.20957 -4.62692,65.54802"
       id="path2"
       sodipodi:nodetypes="cc" />
    <path
       style="fill:none;stroke:#000000;stroke-width:10;stroke-dasharray:none;stroke-opacity:1;marker-start:url(#Dot);marker-end:url(#Dot)"
       d="m 32.902534,248.05425 c -7.613969,-40.81356 64.415045,-41.25655 65.548015,0"
       id="path3"
       sodipodi:nodetypes="cc" />
    <path
       style="fill:none;stroke:#000000;stroke-width:10;stroke-dasharray:none;stroke-opacity:1;marker-start:url(#Dot);marker-end:url(#Dot)"
       d="m 34.003709,206.40221 c -7.613969,-40.81356 64.41505,-41.25655 65.54802,0"
       id="path3-3"
       sodipodi:nodetypes="cc" />
    <ellipse
       style="fill:#000000;stroke-width:1.301"
       id="ellipse5"
       cx="165.12511"
       cy="143.91132"
       rx="16.836845"
       ry="17.093895" />
    <path
       style="fill:none;stroke:#000000;stroke-width:10;stroke-dasharray:none;stroke-opacity:1;marker-start:url(#Dot-2);marker-end:url(#Dot-2)"
       d="m 161.39787,140.44113 c 7.71153,34.44484 -1.79936,53.20957 -4.62692,65.54802"
       id="path6"
       sodipodi:nodetypes="cc" />
    <path
       style="fill:none;stroke:#000000;stroke-width:10;stroke-dasharray:none;stroke-opacity:1;marker-start:url(#Dot-2);marker-end:url(#Dot-2)"
       d="m 138.52033,227.83847 c 1.59656,-25.24105 29.91641,-31.56069 37.01534,9.76794"
       id="path7"
       sodipodi:nodetypes="cc" />
    <path
       style="fill:none;stroke:#000000;stroke-width:10;stroke-dasharray:none;stroke-opacity:1;marker-start:url(#Dot-2);marker-end:url(#Dot-2)"
       d="m 151.44585,195.69732 c -7.61397,-40.81356 28.68495,-38.42899 29.81792,2.82756"
       id="path3-3-8"
       sodipodi:nodetypes="cc" />
    <ellipse
       style="fill:#000000;stroke-width:1.301"
       id="ellipse5-8"
       cx="248.83221"
       cy="140.81812"
       rx="16.836845"
       ry="17.093895" />
    <path
       style="fill:none;stroke:#000000;stroke-width:10;stroke-dasharray:none;stroke-opacity:1;marker-start:url(#Dot-2-6);marker-end:url(#Dot-2-6)"
       d="m 243.04857,136.83383 c 7.71153,34.44484 -1.79936,53.20957 -4.62692,65.54802"
       id="path6-2"
       sodipodi:nodetypes="cc" />
    <path
       style="fill:none;stroke:#000000;stroke-width:10;stroke-dasharray:none;stroke-opacity:1;marker-start:url(#Dot-2-6);marker-end:url(#Dot-2-6)"
       d="m 231.22423,223.97412 c 0.79673,-25.24105 10.63378,-29.24723 8.99677,12.0814"
       id="path7-7"
       sodipodi:nodetypes="cc" />
    <path
       style="fill:none;stroke:#000000;stroke-width:10;stroke-dasharray:none;stroke-opacity:1;marker-start:url(#Dot-2-6);marker-end:url(#Dot-2-6)"
       d="m 237.72347,192.09002 c -1.39523,-40.81356 15.67347,-34.05912 12.85255,7.19743"
       id="path3-3-8-0"
       sodipodi:nodetypes="cc" />
    <ellipse
       style="fill:#000000;stroke-width:1.301"
       id="ellipse5-8-7"
       cx="310.4335"
       cy="142.04713"
       rx="16.836845"
       ry="17.093895" />
    <path
       style="fill:none;stroke:#000000;stroke-width:10;stroke-dasharray:none;stroke-opacity:1;marker-start:url(#Dot-2-6-4);marker-end:url(#Dot-2-6-4)"
       d="m 304.64984,138.06285 c 7.71153,34.44484 -1.79936,53.20957 -4.62692,65.54802"
       id="path6-2-6"
       sodipodi:nodetypes="cc" />
    <path
       style="fill:none;stroke:#000000;stroke-width:10;stroke-dasharray:none;stroke-opacity:1;marker-start:url(#Dot-2-6-4);marker-end:url(#Dot-2-6-4)"
       d="m 308.09355,224.29433 c 0.79673,-25.24105 -17.90294,-23.97612 -19.53995,17.35251"
       id="path7-7-3"
       sodipodi:nodetypes="cc" />
    <path
       style="fill:none;stroke:#000000;stroke-width:10;stroke-dasharray:none;stroke-opacity:1;marker-start:url(#Dot-2-6-4);marker-end:url(#Dot-2-6-4)"
       d="M 317.31923,197.49958 C 315.924,156.68602 294.82257,154.71586 292.00165,195.97241"
       id="path3-3-8-0-5"
       sodipodi:nodetypes="cc" />
    <ellipse
       style="fill:#000000;stroke-width:1.301"
       id="ellipse5-8-7-7"
       cx="372.79596"
       cy="143.00209"
       rx="16.836845"
       ry="17.093895" />
    <path
       style="fill:none;stroke:#000000;stroke-width:10;stroke-dasharray:none;stroke-opacity:1;marker-start:url(#Dot-2-6-4-1);marker-end:url(#Dot-2-6-4-1)"
       d="m 367.01231,139.01782 c 7.71153,34.44484 -1.79936,53.20957 -4.62692,65.54802"
       id="path6-2-6-4"
       sodipodi:nodetypes="cc" />
    <path
       style="fill:none;stroke:#000000;stroke-width:10;stroke-dasharray:none;stroke-opacity:1;marker-start:url(#Dot-2-6-4-1);marker-end:url(#Dot-2-6-4-1)"
       d="m 380.63473,237.24563 c 1.37338,-49.1324 -37.5275,-38.48324 -38.07974,3.17502"
       id="path7-7-3-9"
       sodipodi:nodetypes="cc" />
    <path
       style="fill:none;stroke:#000000;stroke-width:10;stroke-dasharray:none;stroke-opacity:1;marker-start:url(#Dot-2-6-4-1);marker-end:url(#Dot-2-6-4-1)"
       d="m 388.76983,198.81808 c -1.39523,-40.81356 -34.85652,-43.14725 -37.67744,-1.8907"
       id="path3-3-8-0-5-6"
       sodipodi:nodetypes="cc"
       inkscape:export-filename="paths.png"
       inkscape:export-xdpi="96"
       inkscape:export-ydpi="96" />
  </g>
</svg>
